PathFileType	4	(X/Y/Z)	c:/Users/goper/Files/vsCode/490R/osim_files/A06/A06_SSWS_02.trc
DataRate	CameraRate	NumFrames	NumMarkers	Units                	OrigDataRate	OrigDataStartFrame	OrigNumFrames
120.00	120.00	7	36	mm	120.0	839	1118
                Frame#	Time	LPSIS			LASIS			LTH1			LTH2			LTH3			LTH4			LLFE			LMFE			LSH1			LSH2			LSH3			LSH4			LLMAL			LMMAL			LCAL			LMTP5			LTOE			LMTP1			RPSIS			RASIS			RTH1			RTH2			RTH3			RTH4			RLFE			RMFE			RSH1			RSH2			RSH3			RSH4			RLMAL			RMMAL			RCAL			RMTP1			RTOE			RMTP5		
		X1	Y1	Z1	X2	Y2	Z2	X3	Y3	Z3	X4	Y4	Z4	X5	Y5	Z5	X6	Y6	Z6	X7	Y7	Z7	X8	Y8	Z8	X9	Y9	Z9	X10	Y10	Z10	X11	Y11	Z11	X12	Y12	Z12	X13	Y13	Z13	X14	Y14	Z14	X15	Y15	Z15	X16	Y16	Z16	X17	Y17	Z17	X18	Y18	Z18	X19	Y19	Z19	X20	Y20	Z20	X21	Y21	Z21	X22	Y22	Z22	X23	Y23	Z23	X24	Y24	Z24	X25	Y25	Z25	X26	Y26	Z26	X27	Y27	Z27	X28	Y28	Z28	X29	Y29	Z29	X30	Y30	Z30	X31	Y31	Z31	X32	Y32	Z32	X33	Y33	Z33	X34	Y34	Z34	X35	Y35	Z35	X36	Y36	Z36

839	6.98333	-3185.29224	1001.38525	283.34543	-3385.63110	947.07526	327.60922	-3268.73706	595.01117	364.67404	-3272.32056	552.77423	360.15955	-3331.39795	588.33942	350.29584	-3321.07861	546.66144	348.08185	-3280.59985	477.35300	342.84296	-3280.87549	470.11081	235.14563	-3209.58472	390.44519	360.78061	-3208.06909	344.41394	363.62906	-3269.18433	384.37543	352.91837	-3262.56323	342.79575	356.57944	-3187.01880	89.88734	321.59753	-3203.65454	106.11742	236.98503	-3120.45435	83.22851	269.42621	-3302.13965	43.55753	333.07782	-3339.78027	65.94647	278.48758	-3315.99121	58.92506	240.10672	-3174.07690	1021.19592	154.32993	-3341.33301	1002.13306	80.54498	0.00000	0.00000	0.00000	-3360.64111	565.86383	37.61372	-3399.32056	626.02625	47.77833	-3410.44531	583.34302	44.43886	-3422.43872	466.36691	63.06703	-3424.62476	468.12473	152.72206	-3410.06323	310.99625	76.92133	-3413.01978	263.85941	78.61677	-3468.32788	309.33295	88.95606	-3464.37012	261.56116	84.73721	-3418.45850	123.97684	69.80633	-3432.39624	131.43816	155.87610	-3360.85620	98.97646	117.41601	-3565.80249	92.57587	145.89236	-3579.15625	105.51733	104.92382	-3554.29883	88.35809	56.26804
840	6.99167	-3192.80225	1000.30511	282.85602	-3393.18359	946.05731	327.68726	-3273.78906	594.55688	364.64737	-3276.70825	552.17206	360.06628	-3334.49219	586.85028	350.11771	-3325.43848	545.55731	347.84399	-3284.26953	476.70343	342.73459	-3284.76123	470.06110	234.93141	-3212.70337	390.47614	360.79077	-3210.72070	344.43747	363.61334	-3272.00708	383.84134	352.76193	-3265.15894	342.32068	356.43283	-3186.96313	88.63366	322.19296	-3204.04956	106.10270	236.65605	-3119.75439	83.96257	268.99670	-3302.23633	43.50461	333.10522	-3340.05420	65.62077	278.42886	-3314.08618	57.87771	239.11240	-3181.63281	1019.97418	153.78015	-3349.16992	1000.62213	80.36589	0.00000	0.00000	0.00000	-3367.61987	564.51599	38.06459	-3406.98657	624.36530	48.39626	-3418.04541	581.72168	45.04601	-3429.76953	464.56067	63.30333	-3431.26782	466.17072	153.01291	-3425.64185	308.66641	76.49986	-3430.97290	261.65118	78.32321	-3483.82788	310.18225	89.07375	-3482.21387	262.05267	84.75098	-3443.95361	122.31615	69.05240	-3456.71094	130.38792	155.25645	-3386.98633	94.53043	116.30092	-3592.19165	98.71077	146.09029	-3605.19189	112.48122	105.25100	-3581.58276	94.11181	56.37552
841	7.00000	-3200.22705	999.17664	282.28271	-3400.71094	944.96082	327.79355	-3278.87476	594.00366	364.59879	-3281.46167	551.34149	360.07190	-3339.65234	585.74243	349.86978	-3330.14331	544.53241	347.62268	-3288.21143	476.05630	342.66602	-3286.76880	468.37210	233.79057	-3215.77173	390.37793	360.72220	-3213.52637	343.88043	363.82272	-3275.21069	383.26410	352.56128	-3267.85522	341.79901	356.19110	-3187.19360	88.84841	321.88858	-3204.35791	106.04181	236.24757	-3119.88623	84.08141	268.81705	-3302.68042	43.60492	333.37027	-3339.94165	64.31009	278.01404	-3315.39331	58.95242	239.63144	-3189.68408	1018.48407	153.08138	-3357.23682	998.97772	80.12931	0.00000	0.00000	0.00000	-3377.28418	562.10358	36.93661	-3414.71436	622.68610	48.97608	-3425.68286	579.98218	45.51028	-3437.18604	462.80090	63.43409	-3438.47119	463.15866	152.52199	-3441.13843	306.83163	76.08392	-3448.93799	260.07538	77.67704	-3498.88062	311.22958	89.21646	-3499.89624	263.18887	84.68098	-3468.97388	121.61383	68.33543	-3480.02881	129.99864	154.52090	-3413.40479	91.75184	115.34598	-3617.65674	105.54182	146.36662	-3630.23120	120.05779	105.64616	-3608.02588	100.65417	56.61960
842	7.00833	-3207.81226	997.95972	281.64081	-3408.28564	943.84485	327.93759	-3284.14429	593.34552	364.55606	-3286.38770	550.82129	359.85681	-3344.14648	583.79291	349.97388	-3334.92432	543.35486	347.30154	-3292.13354	475.24863	342.44321	-3290.42383	467.89508	233.48538	-3219.12866	390.24469	360.62891	-3216.42773	344.19226	363.38022	-3278.43237	382.59573	352.23642	-3270.80078	341.17404	355.86316	-3187.26294	89.91191	319.70297	-3204.66992	105.95602	235.76999	-3120.00073	84.22540	268.63397	-3302.72583	41.86691	331.95526	-3341.94312	64.48558	278.74844	-3316.63477	59.17078	238.54842	-3197.65576	1016.94989	152.40497	-3365.35205	997.16974	79.97833	-3367.05347	599.72754	39.13061	-3385.21948	560.39966	36.96457	-3422.65625	621.12604	49.55924	-3433.75171	578.49646	45.97528	-3445.28271	461.11740	63.52116	-3444.38647	461.56445	152.23135	-3456.45752	305.41251	75.76295	0.00000	0.00000	0.00000	-3513.82715	312.53952	89.29087	-3517.07495	264.56873	84.68807	-3493.04028	121.66101	67.60355	-3501.53662	127.73746	152.93266	-3438.22876	89.04851	114.12695	-3641.66528	112.73673	146.77538	-3653.92114	127.97987	106.23815	-3633.10962	107.58746	57.00264
843	7.01667	-3215.29712	996.66156	280.92023	-3415.86255	942.62714	328.07816	-3289.64307	592.63696	364.52747	-3291.24365	549.90411	359.65128	-3349.98145	583.06427	349.29446	-3339.77100	542.13287	346.86932	-3296.32227	474.40234	342.15103	-3296.50269	469.11859	233.98668	-3222.73608	390.00336	360.60605	-3219.62646	343.92819	363.29095	-3281.88208	381.75626	351.87921	-3273.87256	340.45731	355.49951	-3187.62866	90.31346	319.21484	-3204.87305	105.79337	235.21379	-3120.07861	84.11357	268.51904	-3302.10449	42.25149	331.82950	-3340.21240	63.37722	277.66925	-3316.76172	58.76321	238.38792	-3205.76245	1015.37231	151.57619	-3373.75024	995.23798	79.87119	-3375.61743	598.08667	39.28576	-3394.34888	559.15369	37.02112	-3431.12549	619.98608	50.03799	-3442.55591	577.42578	46.45212	-3454.79370	460.04077	63.63137	-3453.12231	459.72620	152.39911	-3471.92212	304.72849	75.20380	-3485.44800	258.25797	75.89371	-3528.91162	314.13245	89.38286	-3534.14941	266.37375	84.63520	-3515.57715	122.50641	66.86457	-3523.20215	128.69249	152.44336	-3460.47168	87.26249	112.60020	-3663.83911	119.41378	147.25650	-3675.71582	135.27016	106.80793	-3654.88940	113.34862	58.51440
844	7.02500	-3223.06982	995.20819	280.20865	-3423.47144	941.29089	328.22754	-3295.15332	591.66302	364.45035	-3296.31738	548.82538	359.39392	-3355.86035	581.42926	348.60568	-3344.82202	540.81873	346.37494	-3300.61987	473.45425	341.75623	-3297.24438	466.91711	232.67461	-3226.44263	389.62305	360.46072	-3222.88306	343.57935	363.12900	-3285.47510	380.84372	351.32825	-3277.10034	339.61789	354.94394	-3187.51050	90.63764	318.58035	-3205.18018	105.67019	234.55695	-3120.22461	84.62641	268.13712	-3302.20117	42.30811	331.83383	-3340.30884	62.90007	277.43359	-3315.91504	57.87543	239.26424	-3214.33936	1013.25543	151.11348	-3381.91357	993.03137	79.79192	0.00000	0.00000	0.00000	-3403.89307	557.96857	37.04448	-3439.94238	619.80865	49.89341	-3452.10205	576.86157	46.74417	-3465.66748	459.57700	63.59856	-3464.48828	459.89850	153.18246	-3487.73438	304.90036	74.85443	-3502.65576	258.51865	75.58970	-3544.06445	315.94629	89.37253	-3550.67236	268.36502	84.55375	-3535.58081	123.78732	67.83031	-3543.68994	130.27911	151.98482	-3483.19653	87.61939	112.08041	-3684.44165	125.05880	147.57193	-3696.11914	141.38252	107.25948	-3676.22290	119.01712	58.77639
845	7.03333	-3230.83521	993.67865	279.46420	-3431.09009	939.84473	328.37720	-3300.81250	590.59613	364.38843	-3301.64819	547.74744	359.11255	-3361.24976	580.38861	348.05203	-3350.00220	539.40118	345.74933	-3305.18774	472.43658	341.34305	-3300.91382	466.30194	232.12337	-3230.41040	389.21921	360.35464	-3226.46631	342.64337	363.17514	-3289.30518	379.89725	350.76559	-3280.51904	338.73810	354.35040	-3188.36328	90.87823	318.21985	-3205.35596	105.50881	233.92532	-3120.44165	84.79396	267.88248	-3302.20508	42.30598	331.81564	-3340.77979	63.38013	277.54520	-3316.06055	57.43947	239.11687	-3221.96948	1012.07123	149.89333	-3390.23145	990.73425	79.74164	0.00000	0.00000	0.00000	-3414.21411	557.00336	36.94511	-3449.31982	619.28162	50.02082	-3462.02197	576.49103	46.85838	-3477.04419	459.30478	63.53682	-3475.60327	459.54440	152.96437	-3502.83765	305.05692	74.66331	-3518.69775	258.96225	75.48623	-3558.89087	317.64618	89.33581	-3566.69678	270.24805	84.47484	-3555.29736	125.44537	67.46266	-3563.07617	132.07193	151.74117	-3503.48071	87.99487	111.53526	-3703.84766	130.30589	147.58781	-3715.19434	146.89516	107.36015	-3695.92480	124.09331	58.77085
